<svg xmlns="http://www.w3.org/2000/svg" xmlns:xlink="http://www.w3.org/1999/xlink" width="600" zoomAndPan="magnify" viewBox="0 0 450 225" height="300" preserveAspectRatio="xMidYMid meet" version="1.0"><defs><g/><clipPath id="e56b15748f"><path d="M 28.265625 88.160156 L 76.738281 88.160156 L 76.738281 136.636719 L 28.265625 136.636719 Z M 28.265625 88.160156 " clip-rule="nonzero"/></clipPath><clipPath id="b4efeba3ac"><path d="M 13.617188 63.820312 L 52.394531 63.820312 L 52.394531 112.292969 L 13.617188 112.292969 Z M 13.617188 63.820312 " clip-rule="nonzero"/></clipPath><clipPath id="9f852311c3"><path d="M 52.40625 112.695312 L 91.183594 112.695312 L 91.183594 161 L 52.40625 161 Z M 52.40625 112.695312 " clip-rule="nonzero"/></clipPath><clipPath id="2488e0b98b"><path d="M 28.265625 39.484375 L 76.738281 39.484375 L 76.738281 87.957031 L 28.265625 87.957031 Z M 28.265625 39.484375 " clip-rule="nonzero"/></clipPath><clipPath id="24538ec420"><path d="M 28.265625 136.839844 L 76.738281 136.839844 L 76.738281 185.3125 L 28.265625 185.3125 Z M 28.265625 136.839844 " clip-rule="nonzero"/></clipPath></defs><g clip-path="url(#e56b15748f)"><path fill="#00abff" d="M 76.746094 112.402344 L 52.511719 136.640625 L 28.277344 112.402344 L 52.511719 88.167969 Z M 76.746094 112.402344 " fill-opacity="1" fill-rule="nonzero"/></g><g clip-path="url(#b4efeba3ac)"><path fill="#1be6d6" d="M 52.402344 88.058594 L 28.324219 112.132812 L 20.234375 104.046875 C 19.710938 103.523438 19.210938 102.976562 18.742188 102.402344 C 18.273438 101.832031 17.832031 101.238281 17.421875 100.621094 C 17.011719 100.003906 16.628906 99.371094 16.28125 98.71875 C 15.933594 98.066406 15.617188 97.398438 15.332031 96.714844 C 15.050781 96.027344 14.800781 95.332031 14.585938 94.625 C 14.371094 93.917969 14.191406 93.199219 14.046875 92.472656 C 13.902344 91.746094 13.792969 91.015625 13.722656 90.277344 C 13.648438 89.542969 13.613281 88.804688 13.613281 88.0625 C 13.613281 87.324219 13.648438 86.582031 13.722656 85.847656 C 13.792969 85.109375 13.902344 84.378906 14.046875 83.652344 C 14.191406 82.925781 14.371094 82.210938 14.589844 81.5 C 14.804688 80.792969 15.050781 80.097656 15.335938 79.414062 C 15.621094 78.730469 15.9375 78.0625 16.285156 77.40625 C 16.636719 76.753906 17.015625 76.121094 17.425781 75.503906 C 17.839844 74.890625 18.28125 74.296875 18.75 73.726562 C 19.21875 73.152344 19.714844 72.605469 20.242188 72.082031 L 28.328125 63.996094 L 52.410156 88.066406 Z M 52.402344 88.058594 " fill-opacity="1" fill-rule="nonzero"/></g><g clip-path="url(#9f852311c3)"><path fill="#1be6d6" d="M 52.398438 136.929688 L 76.476562 112.855469 L 84.566406 120.941406 C 85.089844 121.464844 85.585938 122.011719 86.054688 122.585938 C 86.527344 123.15625 86.964844 123.753906 87.378906 124.367188 C 87.789062 124.984375 88.167969 125.617188 88.519531 126.269531 C 88.867188 126.921875 89.183594 127.589844 89.46875 128.277344 C 89.75 128.960938 90 129.65625 90.214844 130.363281 C 90.429688 131.074219 90.609375 131.789062 90.753906 132.515625 C 90.898438 133.242188 91.003906 133.972656 91.078125 134.710938 C 91.152344 135.449219 91.1875 136.1875 91.1875 136.925781 C 91.1875 137.667969 91.148438 138.40625 91.078125 139.140625 C 91.003906 139.878906 90.894531 140.609375 90.75 141.335938 C 90.605469 142.0625 90.425781 142.78125 90.210938 143.488281 C 89.996094 144.195312 89.746094 144.890625 89.464844 145.574219 C 89.179688 146.261719 88.863281 146.929688 88.511719 147.582031 C 88.164062 148.234375 87.785156 148.867188 87.371094 149.484375 C 86.960938 150.097656 86.519531 150.691406 86.050781 151.265625 C 85.578125 151.835938 85.082031 152.382812 84.558594 152.90625 L 76.46875 160.996094 L 52.390625 136.921875 Z M 52.398438 136.929688 " fill-opacity="1" fill-rule="nonzero"/></g><g clip-path="url(#2488e0b98b)"><path fill="#3366ff" d="M 76.746094 63.726562 L 52.511719 87.960938 L 28.277344 63.726562 L 52.511719 39.492188 Z M 76.746094 63.726562 " fill-opacity="1" fill-rule="nonzero"/></g><g clip-path="url(#24538ec420)"><path fill="#3366ff" d="M 76.746094 161.082031 L 52.511719 185.316406 L 28.277344 161.082031 L 52.511719 136.84375 Z M 76.746094 161.082031 " fill-opacity="1" fill-rule="nonzero"/></g><g fill="#ffffff" fill-opacity="1"><g transform="translate(111.881674, 149.006501)"><g><path d="M 25.03125 -60.6875 C 29.507812 -60.6875 33.460938 -60.035156 36.890625 -58.734375 C 40.328125 -57.429688 43.410156 -55.472656 46.140625 -52.859375 L 39.078125 -44.515625 C 34.984375 -47.753906 30.695312 -49.375 26.21875 -49.375 C 23.894531 -49.375 22.117188 -48.929688 20.890625 -48.046875 C 19.671875 -47.171875 19.0625 -45.9375 19.0625 -44.34375 C 19.0625 -43.207031 19.375 -42.269531 20 -41.53125 C 20.625 -40.800781 21.675781 -40.09375 23.15625 -39.40625 C 24.632812 -38.726562 26.960938 -37.878906 30.140625 -36.859375 C 36.210938 -34.929688 40.648438 -32.503906 43.453125 -29.578125 C 46.265625 -26.660156 47.671875 -22.617188 47.671875 -17.453125 C 47.671875 -13.703125 46.703125 -10.394531 44.765625 -7.53125 C 42.835938 -4.664062 40.046875 -2.4375 36.390625 -0.84375 C 32.734375 0.738281 28.4375 1.53125 23.5 1.53125 C 14.070312 1.53125 6.378906 -1.332031 0.421875 -7.0625 L 8.171875 -15.65625 C 12.878906 -11.800781 17.789062 -9.875 22.90625 -9.875 C 25.570312 -9.875 27.640625 -10.453125 29.109375 -11.609375 C 30.585938 -12.773438 31.328125 -14.328125 31.328125 -16.265625 C 31.328125 -17.617188 31.039062 -18.734375 30.46875 -19.609375 C 29.90625 -20.492188 28.898438 -21.289062 27.453125 -22 C 26.003906 -22.707031 23.890625 -23.488281 21.109375 -24.34375 C 14.410156 -26.445312 9.695312 -28.972656 6.96875 -31.921875 C 4.25 -34.867188 2.890625 -38.585938 2.890625 -43.078125 C 2.890625 -46.585938 3.835938 -49.675781 5.734375 -52.34375 C 7.640625 -55.019531 10.28125 -57.078125 13.65625 -58.515625 C 17.039062 -59.960938 20.832031 -60.6875 25.03125 -60.6875 Z M 25.03125 -60.6875 "/></g></g></g><g fill="#ffffff" fill-opacity="1"><g transform="translate(161.246719, 149.006501)"><g><path d="M 19.578125 -64.78125 L 19.578125 0 L 4.421875 0 L 4.421875 -63.25 Z M 48.09375 -45.375 L 35.234375 -25.453125 L 49.03125 0 L 32.171875 0 L 19.921875 -24.765625 L 32.9375 -45.375 Z M 48.09375 -45.375 "/></g></g></g><g fill="#ffffff" fill-opacity="1"><g transform="translate(209.249978, 149.006501)"><g><path d="M 30.46875 -46.734375 C 31.945312 -46.734375 33.484375 -46.476562 35.078125 -45.96875 L 32.609375 -31.328125 C 31.128906 -31.773438 29.765625 -32 28.515625 -32 C 25.960938 -32 24.019531 -31.132812 22.6875 -29.40625 C 21.351562 -27.675781 20.316406 -25.050781 19.578125 -21.53125 L 19.578125 0 L 4.421875 0 L 4.421875 -45.375 L 17.625 -45.375 L 18.984375 -36.78125 C 19.890625 -39.78125 21.40625 -42.1875 23.53125 -44 C 25.664062 -45.820312 27.976562 -46.734375 30.46875 -46.734375 Z M 30.46875 -46.734375 "/></g></g></g><g fill="#ffffff" fill-opacity="1"><g transform="translate(243.720394, 149.006501)"><g><path d="M 24.859375 -46.90625 C 31.953125 -46.90625 37.507812 -44.773438 41.53125 -40.515625 C 45.5625 -36.265625 47.578125 -30.304688 47.578125 -22.640625 C 47.578125 -17.765625 46.671875 -13.507812 44.859375 -9.875 C 43.046875 -6.238281 40.421875 -3.425781 36.984375 -1.4375 C 33.554688 0.539062 29.515625 1.53125 24.859375 1.53125 C 17.765625 1.53125 12.203125 -0.59375 8.171875 -4.84375 C 4.140625 -9.101562 2.125 -15.066406 2.125 -22.734375 C 2.125 -27.609375 3.03125 -31.859375 4.84375 -35.484375 C 6.664062 -39.117188 9.289062 -41.929688 12.71875 -43.921875 C 16.15625 -45.910156 20.203125 -46.90625 24.859375 -46.90625 Z M 24.859375 -35.921875 C 22.421875 -35.921875 20.617188 -34.851562 19.453125 -32.71875 C 18.285156 -30.59375 17.703125 -27.265625 17.703125 -22.734375 C 17.703125 -18.015625 18.285156 -14.617188 19.453125 -12.546875 C 20.617188 -10.484375 22.421875 -9.453125 24.859375 -9.453125 C 27.296875 -9.453125 29.09375 -10.515625 30.25 -12.640625 C 31.414062 -14.765625 32 -18.097656 32 -22.640625 C 32 -27.296875 31.414062 -30.671875 30.25 -32.765625 C 29.09375 -34.867188 27.296875 -35.921875 24.859375 -35.921875 Z M 24.859375 -35.921875 "/></g></g></g><g fill="#ffffff" fill-opacity="1"><g transform="translate(293.425898, 149.006501)"><g><path d="M 24.859375 -59.15625 C 32.804688 -59.15625 38.976562 -57.492188 43.375 -54.171875 C 47.769531 -50.859375 49.96875 -45.992188 49.96875 -39.578125 C 49.96875 -32.878906 47.835938 -27.785156 43.578125 -24.296875 C 39.328125 -20.804688 33.597656 -19.0625 26.390625 -19.0625 L 20.34375 -19.0625 L 20.34375 0 L 4.59375 0 L 4.59375 -59.15625 Z M 24.9375 -30.296875 C 27.894531 -30.296875 30.125 -31.035156 31.625 -32.515625 C 33.125 -33.992188 33.875 -36.320312 33.875 -39.5 C 33.875 -45.226562 30.78125 -48.09375 24.59375 -48.09375 L 20.34375 -48.09375 L 20.34375 -30.296875 Z M 24.9375 -30.296875 "/></g></g></g><g fill="#ffffff" fill-opacity="1"><g transform="translate(344.91875, 149.006501)"><g><path d="M 42.046875 -13.953125 C 42.046875 -12.304688 42.257812 -11.085938 42.6875 -10.296875 C 43.113281 -9.503906 43.867188 -8.910156 44.953125 -8.515625 L 41.875 1.28125 C 38.988281 1.050781 36.617188 0.457031 34.765625 -0.5 C 32.921875 -1.46875 31.429688 -3.003906 30.296875 -5.109375 C 27.410156 -0.679688 22.84375 1.53125 16.59375 1.53125 C 12.113281 1.53125 8.523438 0.210938 5.828125 -2.421875 C 3.128906 -5.066406 1.78125 -8.488281 1.78125 -12.6875 C 1.78125 -17.675781 3.625 -21.503906 7.3125 -24.171875 C 11.007812 -26.835938 16.347656 -28.171875 23.328125 -28.171875 L 27.234375 -28.171875 L 27.234375 -29.703125 C 27.234375 -32.148438 26.722656 -33.8125 25.703125 -34.6875 C 24.679688 -35.570312 22.835938 -36.015625 20.171875 -36.015625 C 18.753906 -36.015625 16.976562 -35.800781 14.84375 -35.375 C 12.71875 -34.945312 10.550781 -34.363281 8.34375 -33.625 L 5.015625 -43.40625 C 7.742188 -44.539062 10.664062 -45.40625 13.78125 -46 C 16.90625 -46.601562 19.800781 -46.90625 22.46875 -46.90625 C 29.28125 -46.90625 34.242188 -45.554688 37.359375 -42.859375 C 40.484375 -40.160156 42.046875 -36.03125 42.046875 -30.46875 Z M 21.203125 -9.109375 C 22.441406 -9.109375 23.585938 -9.429688 24.640625 -10.078125 C 25.691406 -10.734375 26.554688 -11.628906 27.234375 -12.765625 L 27.234375 -20.09375 L 24.6875 -20.09375 C 21.957031 -20.09375 19.941406 -19.59375 18.640625 -18.59375 C 17.335938 -17.601562 16.6875 -16.113281 16.6875 -14.125 C 16.6875 -12.59375 17.082031 -11.375 17.875 -10.46875 C 18.664062 -9.5625 19.773438 -9.109375 21.203125 -9.109375 Z M 21.203125 -9.109375 "/></g></g></g><g fill="#ffffff" fill-opacity="1"><g transform="translate(391.730443, 149.006501)"><g><path d="M 31.5 0 C 29.625 6.070312 26.488281 10.710938 22.09375 13.921875 C 17.695312 17.128906 11.894531 18.875 4.6875 19.15625 L 3.0625 8.6875 C 7.375 8.226562 10.578125 7.359375 12.671875 6.078125 C 14.773438 4.804688 16.425781 2.78125 17.625 0 L 12.421875 0 L -0.84375 -45.375 L 15.234375 -45.375 L 22.125 -9.453125 L 30.046875 -45.375 L 45.625 -45.375 Z M 31.5 0 "/></g></g></g></svg>