<svg xmlns="http://www.w3.org/2000/svg" xmlns:xlink="http://www.w3.org/1999/xlink" width="500" zoomAndPan="magnify" viewBox="0 0 375 374.999991" height="500" preserveAspectRatio="xMidYMid meet" version="1.0"><defs><g/><clipPath id="76e802db32"><path d="M 57.226562 143.394531 L 91.597656 143.394531 L 91.597656 177.769531 L 57.226562 177.769531 Z M 57.226562 143.394531 " clip-rule="nonzero"/></clipPath><clipPath id="618f810198"><path d="M 46.839844 126.136719 L 74.335938 126.136719 L 74.335938 160.507812 L 46.839844 160.507812 Z M 46.839844 126.136719 " clip-rule="nonzero"/></clipPath><clipPath id="5fe8f176fe"><path d="M 74.34375 160.792969 L 101.839844 160.792969 L 101.839844 195.164062 L 74.34375 195.164062 Z M 74.34375 160.792969 " clip-rule="nonzero"/></clipPath><clipPath id="83133a31ac"><path d="M 57.226562 108.878906 L 91.597656 108.878906 L 91.597656 143.253906 L 57.226562 143.253906 Z M 57.226562 108.878906 " clip-rule="nonzero"/></clipPath><clipPath id="0c2d86d077"><path d="M 57.226562 177.914062 L 91.597656 177.914062 L 91.597656 212.285156 L 57.226562 212.285156 Z M 57.226562 177.914062 " clip-rule="nonzero"/></clipPath></defs><g clip-path="url(#76e802db32)"><path fill="#00abff" d="M 91.601562 160.585938 L 74.417969 177.769531 L 57.234375 160.585938 L 74.417969 143.402344 Z M 91.601562 160.585938 " fill-opacity="1" fill-rule="nonzero"/></g><g clip-path="url(#618f810198)"><path fill="#1be6d6" d="M 74.34375 143.324219 L 57.269531 160.394531 L 51.53125 154.660156 C 51.160156 154.289062 50.808594 153.902344 50.476562 153.496094 C 50.140625 153.089844 49.828125 152.667969 49.539062 152.230469 C 49.246094 151.796875 48.976562 151.34375 48.730469 150.882812 C 48.480469 150.417969 48.257812 149.945312 48.054688 149.460938 C 47.855469 148.976562 47.679688 148.480469 47.527344 147.980469 C 47.375 147.476562 47.246094 146.96875 47.144531 146.453125 C 47.042969 145.9375 46.964844 145.417969 46.914062 144.898438 C 46.863281 144.375 46.835938 143.851562 46.835938 143.328125 C 46.835938 142.800781 46.863281 142.277344 46.914062 141.753906 C 46.964844 141.234375 47.042969 140.714844 47.144531 140.199219 C 47.25 139.683594 47.375 139.175781 47.527344 138.671875 C 47.679688 138.171875 47.859375 137.679688 48.058594 137.191406 C 48.261719 136.707031 48.484375 136.234375 48.734375 135.769531 C 48.980469 135.308594 49.25 134.859375 49.542969 134.421875 C 49.832031 133.984375 50.148438 133.566406 50.480469 133.160156 C 50.8125 132.753906 51.164062 132.367188 51.535156 131.996094 L 57.273438 126.261719 L 74.347656 143.328125 Z M 74.34375 143.324219 " fill-opacity="1" fill-rule="nonzero"/></g><g clip-path="url(#5fe8f176fe)"><path fill="#1be6d6" d="M 74.339844 177.976562 L 91.414062 160.90625 L 97.148438 166.640625 C 97.519531 167.011719 97.871094 167.398438 98.207031 167.804688 C 98.539062 168.210938 98.851562 168.632812 99.144531 169.070312 C 99.433594 169.507812 99.703125 169.957031 99.953125 170.417969 C 100.199219 170.882812 100.421875 171.355469 100.625 171.839844 C 100.824219 172.324219 101 172.820312 101.152344 173.320312 C 101.304688 173.824219 101.433594 174.332031 101.535156 174.847656 C 101.636719 175.363281 101.714844 175.882812 101.765625 176.402344 C 101.816406 176.925781 101.84375 177.449219 101.84375 177.972656 C 101.84375 178.5 101.816406 179.023438 101.765625 179.546875 C 101.714844 180.066406 101.636719 180.585938 101.535156 181.101562 C 101.433594 181.617188 101.304688 182.125 101.152344 182.628906 C 101 183.128906 100.824219 183.621094 100.621094 184.109375 C 100.421875 184.59375 100.195312 185.066406 99.949219 185.53125 C 99.699219 185.992188 99.429688 186.441406 99.140625 186.878906 C 98.847656 187.316406 98.535156 187.734375 98.199219 188.140625 C 97.867188 188.546875 97.515625 188.933594 97.144531 189.304688 L 91.40625 195.039062 L 74.332031 177.972656 Z M 74.339844 177.976562 " fill-opacity="1" fill-rule="nonzero"/></g><g clip-path="url(#83133a31ac)"><path fill="#3366ff" d="M 91.601562 126.070312 L 74.417969 143.253906 L 57.234375 126.070312 L 74.417969 108.886719 Z M 91.601562 126.070312 " fill-opacity="1" fill-rule="nonzero"/></g><g clip-path="url(#0c2d86d077)"><path fill="#3366ff" d="M 91.601562 195.101562 L 74.417969 212.285156 L 57.234375 195.101562 L 74.417969 177.917969 Z M 91.601562 195.101562 " fill-opacity="1" fill-rule="nonzero"/></g><g fill="#ffffff" fill-opacity="1"><g transform="translate(116.518026, 186.540441)"><g><path d="M 17.75 -43.03125 C 20.925781 -43.03125 23.726562 -42.566406 26.15625 -41.640625 C 28.59375 -40.722656 30.78125 -39.335938 32.71875 -37.484375 L 27.703125 -31.5625 C 24.804688 -33.863281 21.769531 -35.015625 18.59375 -35.015625 C 16.9375 -35.015625 15.675781 -34.703125 14.8125 -34.078125 C 13.945312 -33.453125 13.515625 -32.578125 13.515625 -31.453125 C 13.515625 -30.640625 13.734375 -29.972656 14.171875 -29.453125 C 14.617188 -28.929688 15.363281 -28.425781 16.40625 -27.9375 C 17.457031 -27.457031 19.113281 -26.859375 21.375 -26.140625 C 25.675781 -24.765625 28.820312 -23.039062 30.8125 -20.96875 C 32.800781 -18.894531 33.796875 -16.03125 33.796875 -12.375 C 33.796875 -9.71875 33.113281 -7.375 31.75 -5.34375 C 30.382812 -3.3125 28.398438 -1.726562 25.796875 -0.59375 C 23.203125 0.53125 20.15625 1.09375 16.65625 1.09375 C 9.976562 1.09375 4.523438 -0.941406 0.296875 -5.015625 L 5.796875 -11.109375 C 9.128906 -8.367188 12.609375 -7 16.234375 -7 C 18.128906 -7 19.597656 -7.410156 20.640625 -8.234375 C 21.691406 -9.054688 22.21875 -10.15625 22.21875 -11.53125 C 22.21875 -12.5 22.015625 -13.289062 21.609375 -13.90625 C 21.203125 -14.53125 20.484375 -15.09375 19.453125 -15.59375 C 18.429688 -16.101562 16.9375 -16.660156 14.96875 -17.265625 C 10.21875 -18.753906 6.875 -20.546875 4.9375 -22.640625 C 3.007812 -24.734375 2.046875 -27.367188 2.046875 -30.546875 C 2.046875 -33.035156 2.71875 -35.222656 4.0625 -37.109375 C 5.414062 -39.003906 7.289062 -40.460938 9.6875 -41.484375 C 12.082031 -42.515625 14.769531 -43.03125 17.75 -43.03125 Z M 17.75 -43.03125 "/></g></g></g><g fill="#ffffff" fill-opacity="1"><g transform="translate(151.521884, 186.540441)"><g><path d="M 13.875 -45.9375 L 13.875 0 L 3.140625 0 L 3.140625 -44.84375 Z M 34.109375 -32.171875 L 24.984375 -18.046875 L 34.765625 0 L 22.8125 0 L 14.125 -17.5625 L 23.359375 -32.171875 Z M 34.109375 -32.171875 "/></g></g></g><g fill="#ffffff" fill-opacity="1"><g transform="translate(185.560124, 186.540441)"><g><path d="M 21.609375 -33.140625 C 22.648438 -33.140625 23.738281 -32.957031 24.875 -32.59375 L 23.125 -22.21875 C 22.070312 -22.53125 21.101562 -22.6875 20.21875 -22.6875 C 18.40625 -22.6875 17.023438 -22.070312 16.078125 -20.84375 C 15.140625 -19.625 14.40625 -17.765625 13.875 -15.265625 L 13.875 0 L 3.140625 0 L 3.140625 -32.171875 L 12.5 -32.171875 L 13.453125 -26.078125 C 14.097656 -28.210938 15.175781 -29.921875 16.6875 -31.203125 C 18.195312 -32.492188 19.835938 -33.140625 21.609375 -33.140625 Z M 21.609375 -33.140625 "/></g></g></g><g fill="#ffffff" fill-opacity="1"><g transform="translate(210.002471, 186.540441)"><g><path d="M 17.625 -33.265625 C 22.65625 -33.265625 26.597656 -31.753906 29.453125 -28.734375 C 32.304688 -25.710938 33.734375 -21.488281 33.734375 -16.0625 C 33.734375 -12.59375 33.085938 -9.570312 31.796875 -7 C 30.515625 -4.425781 28.65625 -2.429688 26.21875 -1.015625 C 23.789062 0.390625 20.925781 1.09375 17.625 1.09375 C 12.59375 1.09375 8.648438 -0.414062 5.796875 -3.4375 C 2.941406 -6.457031 1.515625 -10.679688 1.515625 -16.109375 C 1.515625 -19.578125 2.15625 -22.597656 3.4375 -25.171875 C 4.726562 -27.742188 6.585938 -29.734375 9.015625 -31.140625 C 11.453125 -32.554688 14.320312 -33.265625 17.625 -33.265625 Z M 17.625 -25.46875 C 15.894531 -25.46875 14.617188 -24.710938 13.796875 -23.203125 C 12.972656 -21.691406 12.5625 -19.328125 12.5625 -16.109375 C 12.5625 -12.773438 12.972656 -10.375 13.796875 -8.90625 C 14.617188 -7.4375 15.894531 -6.703125 17.625 -6.703125 C 19.351562 -6.703125 20.628906 -7.457031 21.453125 -8.96875 C 22.273438 -10.476562 22.6875 -12.84375 22.6875 -16.0625 C 22.6875 -19.351562 22.273438 -21.742188 21.453125 -23.234375 C 20.628906 -24.722656 19.351562 -25.46875 17.625 -25.46875 Z M 17.625 -25.46875 "/></g></g></g><g fill="#ffffff" fill-opacity="1"><g transform="translate(245.247742, 186.540441)"><g><path d="M 17.625 -41.953125 C 23.257812 -41.953125 27.632812 -40.773438 30.75 -38.421875 C 33.875 -36.066406 35.4375 -32.613281 35.4375 -28.0625 C 35.4375 -23.3125 33.925781 -19.695312 30.90625 -17.21875 C 27.882812 -14.75 23.820312 -13.515625 18.71875 -13.515625 L 14.421875 -13.515625 L 14.421875 0 L 3.265625 0 L 3.265625 -41.953125 Z M 17.6875 -21.484375 C 19.78125 -21.484375 21.359375 -22.003906 22.421875 -23.046875 C 23.484375 -24.097656 24.015625 -25.75 24.015625 -28 C 24.015625 -32.070312 21.820312 -34.109375 17.4375 -34.109375 L 14.421875 -34.109375 L 14.421875 -21.484375 Z M 17.6875 -21.484375 "/></g></g></g><g fill="#ffffff" fill-opacity="1"><g transform="translate(281.76039, 186.540441)"><g><path d="M 29.8125 -9.90625 C 29.8125 -8.738281 29.960938 -7.867188 30.265625 -7.296875 C 30.566406 -6.734375 31.101562 -6.3125 31.875 -6.03125 L 29.703125 0.90625 C 27.648438 0.738281 25.96875 0.316406 24.65625 -0.359375 C 23.34375 -1.046875 22.285156 -2.132812 21.484375 -3.625 C 19.429688 -0.476562 16.191406 1.09375 11.765625 1.09375 C 8.585938 1.09375 6.039062 0.15625 4.125 -1.71875 C 2.21875 -3.59375 1.265625 -6.019531 1.265625 -9 C 1.265625 -12.539062 2.570312 -15.253906 5.1875 -17.140625 C 7.800781 -19.035156 11.582031 -19.984375 16.53125 -19.984375 L 19.3125 -19.984375 L 19.3125 -21.0625 C 19.3125 -22.789062 18.945312 -23.96875 18.21875 -24.59375 C 17.5 -25.21875 16.195312 -25.53125 14.3125 -25.53125 C 13.300781 -25.53125 12.039062 -25.378906 10.53125 -25.078125 C 9.019531 -24.773438 7.484375 -24.363281 5.921875 -23.84375 L 3.5625 -30.78125 C 5.488281 -31.582031 7.554688 -32.195312 9.765625 -32.625 C 11.984375 -33.050781 14.039062 -33.265625 15.9375 -33.265625 C 20.757812 -33.265625 24.273438 -32.304688 26.484375 -30.390625 C 28.703125 -28.484375 29.8125 -25.554688 29.8125 -21.609375 Z M 15.03125 -6.453125 C 15.914062 -6.453125 16.726562 -6.679688 17.46875 -7.140625 C 18.21875 -7.609375 18.832031 -8.242188 19.3125 -9.046875 L 19.3125 -14.25 L 17.5 -14.25 C 15.570312 -14.25 14.144531 -13.894531 13.21875 -13.1875 C 12.289062 -12.476562 11.828125 -11.421875 11.828125 -10.015625 C 11.828125 -8.929688 12.109375 -8.066406 12.671875 -7.421875 C 13.234375 -6.773438 14.019531 -6.453125 15.03125 -6.453125 Z M 15.03125 -6.453125 "/></g></g></g><g fill="#ffffff" fill-opacity="1"><g transform="translate(314.953713, 186.540441)"><g><path d="M 22.328125 0 C 21.003906 4.300781 18.78125 7.585938 15.65625 9.859375 C 12.539062 12.140625 8.425781 13.378906 3.3125 13.578125 L 2.171875 6.15625 C 5.234375 5.832031 7.507812 5.21875 9 4.3125 C 10.488281 3.40625 11.65625 1.96875 12.5 0 L 8.8125 0 L -0.609375 -32.171875 L 10.796875 -32.171875 L 15.6875 -6.703125 L 21.3125 -32.171875 L 32.359375 -32.171875 Z M 22.328125 0 "/></g></g></g></svg>